<svg
    xmlns="http://www.w3.org/2000/svg"
    viewBox="0 0 20 20"
    id="vector">
    <path
        id="path"
        d="M 9.989 7.982 C 8.922 8 7.905 8.438 7.159 9.2 C 6.412 9.962 5.996 10.988 6 12.055 L 6 17.504 C 6 17.635 5.948 17.762 5.855 17.855 C 5.762 17.948 5.635 18 5.504 18 L 4.497 18 C 4.41 18 4.325 17.977 4.249 17.933 C 4.174 17.89 4.111 17.827 4.067 17.752 C 4.024 17.676 4.001 17.59 4.001 17.503 L 4.003 16 L 4 16 L 4 12.055 C 3.996 10.458 4.624 8.923 5.745 7.786 C 6.866 6.649 8.392 6 9.989 5.982 L 10 5.98 L 10 5.982 L 11.988 5.982 C 12.057 5.997 12.129 5.991 12.195 5.965 C 12.26 5.939 12.317 5.895 12.358 5.837 C 12.398 5.779 12.42 5.71 12.422 5.639 C 12.423 5.568 12.403 5.499 12.365 5.439 L 11.021 2.487 C 10.995 2.407 10.996 2.32 11.024 2.24 C 11.052 2.16 11.106 2.091 11.177 2.045 C 11.247 1.998 11.332 1.976 11.416 1.982 C 11.501 1.988 11.581 2.022 11.645 2.078 L 17.992 7 L 11.645 11.885 C 11.581 11.942 11.501 11.975 11.416 11.981 C 11.332 11.987 11.247 11.965 11.177 11.919 C 11.106 11.872 11.052 11.804 11.024 11.724 C 10.996 11.644 10.995 11.557 11.021 11.476 L 12.365 8.524 C 12.403 8.465 12.423 8.395 12.421 8.324 C 12.42 8.254 12.398 8.185 12.358 8.127 C 12.317 8.069 12.26 8.024 12.195 7.998 C 12.129 7.972 12.057 7.967 11.988 7.982 L 9.989 7.982 Z"
        fill="#000000"/>
</svg>
