<svg
    xmlns="http://www.w3.org/2000/svg"
    viewBox="0 0 20 20"
    id="vector">
    <path
        id="path"
        d="M 17 8 L 17 17.497 C 17 17.585 16.977 17.672 16.933 17.748 C 16.888 17.825 16.825 17.888 16.748 17.933 C 16.672 17.977 16.585 18 16.497 18 L 15.504 18 C 15.415 18 15.328 17.977 15.252 17.933 C 15.175 17.888 15.112 17.825 15.067 17.748 C 15.023 17.672 15 17.585 15 17.497 L 15 8 C 15 7.072 14.631 6.181 13.975 5.525 C 13.319 4.869 12.428 4.5 11.5 4.5 C 10.572 4.5 9.681 4.869 9.025 5.525 C 8.369 6.181 8 7.072 8 8 L 8 12 L 7.991 12 C 7.976 12.069 7.982 12.141 8.007 12.207 C 8.033 12.273 8.078 12.33 8.136 12.37 C 8.194 12.41 8.263 12.433 8.334 12.434 C 8.404 12.435 8.474 12.416 8.533 12.377 L 11.485 11.034 C 11.566 11.007 11.653 11.008 11.733 11.036 C 11.813 11.065 11.881 11.118 11.928 11.189 C 11.975 11.26 11.996 11.344 11.99 11.429 C 11.984 11.513 11.951 11.594 11.895 11.657 L 6.991 18 L 2.087 11.657 C 2.031 11.594 1.997 11.513 1.991 11.429 C 1.985 11.344 2.007 11.26 2.054 11.189 C 2.1 11.118 2.169 11.065 2.249 11.036 C 2.329 11.008 2.416 11.007 2.497 11.034 L 5.448 12.377 C 5.508 12.416 5.577 12.435 5.648 12.434 C 5.719 12.433 5.788 12.41 5.846 12.37 C 5.904 12.33 5.949 12.273 5.974 12.207 C 6 12.141 6.006 12.069 5.991 12 L 6 12 L 6 8 C 6 6.542 6.58 5.142 7.611 4.111 C 8.642 3.08 10.042 2.5 11.5 2.5 C 12.958 2.5 14.358 3.08 15.389 4.111 C 16.42 5.142 17 6.542 17 8 Z"
        fill="#000000"/>
</svg>
