<svg
    xmlns="http://www.w3.org/2000/svg"
    viewBox="0 0 20 20"
    id="vector">
    <path
        id="path"
        d="M 14.503 8.966 L 11.552 7.623 C 11.492 7.584 11.422 7.565 11.352 7.566 C 11.281 7.567 11.212 7.59 11.154 7.63 C 11.096 7.67 11.051 7.727 11.026 7.793 C 11 7.859 10.994 7.931 11.009 8 L 11.009 17.497 C 11.009 17.585 10.986 17.672 10.942 17.748 C 10.898 17.825 10.834 17.888 10.757 17.933 C 10.681 17.977 10.594 18 10.506 18 L 9.513 18 C 9.424 18 9.337 17.977 9.261 17.933 C 9.184 17.888 9.121 17.825 9.077 17.748 C 9.032 17.672 9.009 17.585 9.009 17.497 L 9.009 8 C 9.024 7.931 9.019 7.859 8.993 7.793 C 8.967 7.727 8.922 7.67 8.864 7.63 C 8.806 7.59 8.737 7.567 8.667 7.566 C 8.596 7.565 8.526 7.584 8.467 7.623 L 5.515 8.966 C 5.434 8.993 5.347 8.992 5.267 8.964 C 5.187 8.935 5.119 8.882 5.072 8.811 C 5.026 8.74 5.004 8.656 5.01 8.571 C 5.016 8.487 5.049 8.406 5.105 8.343 L 10.009 2 L 14.913 8.343 C 14.969 8.406 15.003 8.487 15.009 8.571 C 15.015 8.656 14.993 8.74 14.946 8.811 C 14.9 8.882 14.831 8.935 14.751 8.964 C 14.671 8.992 14.584 8.993 14.503 8.966 Z"
        fill="#000000"/>
</svg>
