<?xml version="1.0" encoding="iso-8859-1"?>
<!-- Generator: Adobe Illustrator 16.0.0, SVG Export Plug-In . SVG Version: 6.00 Build 0)  -->
<!DOCTYPE svg PUBLIC "-//W3C//DTD SVG 1.1//EN" "http://www.w3.org/Graphics/SVG/1.1/DTD/svg11.dtd">
<svg version="1.1" id="Capa_1" xmlns="http://www.w3.org/2000/svg" xmlns:xlink="http://www.w3.org/1999/xlink" x="0px" y="0px"
	 width="485.213px" height="485.212px" viewBox="0 0 485.213 485.212" style="enable-background:new 0 0 485.213 485.212;"
	 xml:space="preserve">
<g>
	<path d="M242.607,0C108.629,0,0.001,108.628,0.001,242.606c0,133.976,108.628,242.606,242.606,242.606
		c133.978,0,242.604-108.631,242.604-242.606C485.212,108.628,376.585,0,242.607,0z M257.771,454.116v-29.557h-30.327v29.557
		c-104.925-7.458-188.883-91.419-196.346-196.344h29.554v-30.327H31.098c7.463-104.928,91.421-188.886,196.346-196.349v29.554
		h30.327V31.097c104.926,7.462,188.882,91.421,196.344,196.349h-29.552v30.327h29.552
		C446.652,362.697,362.696,446.658,257.771,454.116z M354.226,178.163c2.072,3.615,0.83,8.266-2.782,10.368l-80.092,46.227
		c0.691,2.577,1.582,5.066,1.582,7.848c0,16.762-13.581,30.324-30.326,30.324c-16.75,0-30.327-13.562-30.327-30.324l-82.299-47.503
		c-7.257-4.203-9.743-13.474-5.554-20.729c4.174-7.285,13.459-9.771,20.715-5.565l82.775,47.798
		c4.411-2.487,9.239-4.324,14.69-4.324c8.471,0,16.092,3.494,21.604,9.122l79.648-46.024
		C347.416,173.277,352.064,174.521,354.226,178.163z"/>
</g>
<g>
</g>
<g>
</g>
<g>
</g>
<g>
</g>
<g>
</g>
<g>
</g>
<g>
</g>
<g>
</g>
<g>
</g>
<g>
</g>
<g>
</g>
<g>
</g>
<g>
</g>
<g>
</g>
<g>
</g>
</svg>
