<svg
    xmlns="http://www.w3.org/2000/svg"
    viewBox="0 0 439 365"
    id="vector">
    <path
        id="path"
        d="M 0 324 L 80.1 324 L 80.1 242.5 L 159.6 242.5 L 159.6 160.5 L 240.4 160.5 L 240.4 80 L 320.6 80 L 320.6 0 L 439.8 0 L 439.8 40.8 L 360.5 40.8 L 360.5 121.1 L 280.2 121.1 L 280.2 202.5 L 200.1 202.5 L 200.1 283.5 L 119.6 283.5 L 119.6 365.1 L 0 365.1 L 0 324 Z"
        fill="#000000"
        stroke="#00000000"/>
    <path
        id="path_1"
        d="M 358.8 237.9 L 288 237.9 C 268.5 237.9 267.8 267.9 288 267.9 L 324.3 267.9 L 255.3 336.9 C 240 352.2 261.7 374.3 277.9 358.1 L 345.9 289.9 L 345.9 325.8 C 345.8 345.3 376 346.1 376.1 325.8 L 376.1 255.5 C 376.1 245 369 237.9 358.8 237.9 Z"
        fill="#000000"
        stroke="#00000000"/>
</svg>
