<svg
    xmlns="http://www.w3.org/2000/svg"
    viewBox="0 0 20 20"
    id="vector">
    <path
        id="path"
        d="M 10 5.98 L 10.011 5.982 C 11.608 6 13.134 6.649 14.255 7.786 C 15.376 8.923 16.004 10.458 16 12.055 L 16 16 L 15.997 16 L 15.999 17.503 C 15.999 17.59 15.976 17.676 15.933 17.752 C 15.889 17.827 15.826 17.89 15.751 17.933 C 15.676 17.977 15.59 18 15.503 18 L 14.496 18 C 14.365 18 14.238 17.948 14.145 17.855 C 14.052 17.762 14 17.635 14 17.504 L 14 12.055 C 14.004 10.988 13.588 9.962 12.841 9.2 C 12.095 8.438 11.078 8 10.011 7.982 L 8.012 7.982 C 7.943 7.967 7.871 7.972 7.805 7.998 C 7.74 8.024 7.683 8.069 7.642 8.127 C 7.602 8.185 7.58 8.254 7.578 8.324 C 7.577 8.395 7.597 8.465 7.635 8.524 L 8.979 11.476 C 9.005 11.557 9.004 11.644 8.976 11.724 C 8.948 11.804 8.894 11.872 8.823 11.919 C 8.753 11.965 8.668 11.987 8.584 11.981 C 8.499 11.975 8.419 11.942 8.355 11.885 L 2.008 7 L 8.355 2.078 C 8.419 2.022 8.499 1.988 8.584 1.982 C 8.668 1.976 8.753 1.998 8.823 2.045 C 8.894 2.091 8.948 2.16 8.976 2.24 C 9.004 2.32 9.005 2.407 8.979 2.487 L 7.635 5.439 C 7.597 5.499 7.577 5.568 7.578 5.639 C 7.58 5.71 7.602 5.779 7.642 5.837 C 7.683 5.895 7.74 5.939 7.805 5.965 C 7.871 5.991 7.943 5.997 8.012 5.982 L 10 5.982"
        fill="#000000"/>
</svg>
