<svg
    xmlns="http://www.w3.org/2000/svg"
    viewBox="0 0 1559 1293"
    id="vector">
    <path
        id="path"
        d="M 1566.7 1153.1 L 1281.7 1153.1 L 1281.7 863.2 L 998.6 863.2 L 998.6 571.3 L 711 571.3 L 711 284.8 L 425.4 284.8 L 425.4 0.2 L 1.3 0.2 L 1.3 145.4 L 283.2 145.4 L 283.2 431.1 L 569.2 431.1 L 569.2 720.8 L 854.6 720.8 L 854.6 1009 L 1141.2 1009 L 1141.2 1299.6 L 1566.8 1299.6 L 1566.8 1153.1 Z"
        fill="#000000"
        stroke="#00000000"/>
    <path
        id="path_1"
        d="M 676.2 1233.5 L 676.2 981.6 C 676.2 912.2 569.4 909.5 569.4 981.6 L 569.4 1110.7 L 323.7 865.1 C 269.2 810.7 190.4 887.7 248.3 945.5 L 491 1187.4 L 363.1 1187.4 C 293.7 1187 291 1294.7 363.1 1294.8 L 613.6 1294.8 C 651 1294.8 676.2 1269.7 676.2 1233.4 Z"
        fill="#000000"
        stroke="#00000000"/>
</svg>
